<svg width="290" height="960" viewBox="0 0 290 960" fill="none" xmlns="http://www.w3.org/2000/svg">
<path d="M141.276 291.747C133.841 363.623 122.458 437.811 126.981 510.168C128.717 537.947 129.935 614.232 126.981 642C125.536 655.579 127.704 916.367 127.567 930" stroke="#343434" stroke-width="60" stroke-linecap="round"/>
<path d="M46.5049 199.3C81.5398 239.34 95.5997 245.858 151.838 256.967C181.838 247.967 250.838 238.967 259.838 163.967C259.838 107.879 221.297 47.6649 163.838 33.3004C100.719 17.5207 54.9551 60.6629 34.8382 112.967C25.6609 136.828 29.534 179.905 46.5049 199.3Z" fill="#FFF09E"/>
<path d="M46.5049 199.3C81.5398 239.34 95.5997 245.858 151.838 256.967C181.838 247.967 250.838 238.967 259.838 163.967C259.838 107.879 221.297 47.6649 163.838 33.3004C100.719 17.5207 54.9551 60.6629 34.8382 112.967C25.6609 136.828 29.534 179.905 46.5049 199.3Z" stroke="#343434" stroke-width="60" stroke-linecap="round"/>
</svg>
